:SAMPLES-PER-SECOND 30
:FULLY-SPECIFIED
:DEGREES
242
root  -24.5428 38.8476 10.5689 -175.589 31.5279 177.824
RightUpLeg  -27.7425 -10.5148 -11.8734
RightLeg  30.673 1.78344 0.842934
RightFoot  2.72421 -3.28881 26.3029
RightToes  -1.74624e-010 0 -3.6325e-017
Spine  16.6306 -2.46809 -1.01117
Spine1  16.17 -4.44748 4.34515
HEad  -18.6063 24.2071 -16.3597
LeftShoulder1  1.50509 -3.46928 -14.7107
LeftArm  12.1571 2.44242 -62.8497
LeftForeArm  96.6181 -78.1345 -113.928
LeftHand  -2.74879 -3.5214 35.0516
RightShoulder  0.452718 -0.613475 8.24364
RightArm  -0.154813 -11.4147 58.4218
RightForeArm  149.416 62.3755 159.114
RightHand  -1.28641 5.1142 -14.4412
LeftUpLeg  -27.9198 2.26026 2.10057
LeftLeg  40.9981 -10.1382 -8.92106
LeftFoot  -2.50576 1.88399 -24.0288
LeftToes  3.7286e-011 -1.5702e-010 -9.70233e-012
243
root  -25.2563 38.1016 10.4896 -176.474 29.9159 177.533
RightUpLeg  -27.868 -8.3374 -13.0267
RightLeg  32.5544 3.65903 2.24266
RightFoot  0.0435566 -2.59163 25.458
RightToes  -1.74624e-010 0 -3.6325e-017
Spine  17.0713 -2.7586 -0.811401
Spine1  17.0228 -5.22727 5.76328
HEad  -17.9272 24.1312 -16.2676
LeftShoulder1  1.52141 -3.4303 -15.1167
LeftArm  11.9209 2.05943 -64.6515
LeftForeArm  89.8115 -78.5941 -107.53
LeftHand  -2.7116 -3.31198 35.386
RightShoulder  0.387343 -1.01652 8.15935
RightArm  -1.31714 -8.878 56.7007
RightForeArm  146.573 62.403 158.812
RightHand  -1.26276 4.86025 -14.5157
LeftUpLeg  -29.4175 0.366859 4.47877
LeftLeg  48.8732 -8.17759 -9.3725
LeftFoot  -6.68147 1.07992 -24.589
LeftToes  3.7286e-011 -1.5702e-010 -9.70233e-012
244
root  -25.9927 37.2529 10.3365 -177.957 29.8523 176.841
RightUpLeg  -27.9548 -6.31451 -15.0095
RightLeg  35.0072 0.803378 0.326639
RightFoot  -3.97814 -1.45451 21.9162
RightToes  -1.74624e-010 0 -3.6325e-017
Spine  16.9263 -2.80815 -0.905402
Spine1  18.1992 -5.50212 6.42637
HEad  -17.1338 24.6161 -16.5887
LeftShoulder1  1.52974 -3.15538 -16.2264
LeftArm  12.1149 2.89482 -65.6714
LeftForeArm  82.4086 -78.9803 -99.6609
LeftHand  -2.74243 -3.21467 36.1337
RightShoulder  0.356501 -1.24944 8.43667
RightArm  -2.41531 -6.91511 55.4182
RightForeArm  143.31 63.2683 157.734
RightHand  -1.18582 4.43296 -14.2271
LeftUpLeg  -28.2623 -0.789755 7.50274
LeftLeg  55.171 -3.54423 -4.95973
LeftFoot  -9.12684 0.416941 -19.1855
LeftToes  3.7286e-011 -1.5702e-010 -9.70233e-012
245
root  -26.8346 36.4522 10.1421 -179.136 31.1039 176.273
RightUpLeg  -29.4967 -4.78741 -16.9495
RightLeg  38.3926 -0.828151 -0.958238
RightFoot  -7.09686 -0.808019 20.5076
RightToes  -1.74624e-010 0 -3.6325e-017
Spine  16.5182 -2.80219 -0.611451
Spine1  19.7214 -5.21034 5.73934
HEad  -18.1053 25.069 -17.6542
LeftShoulder1  1.6594 -3.4582 -17.1703
LeftArm  11.9482 4.27631 -66.027
LeftForeArm  76.5422 -79.1851 -92.3456
LeftHand  -2.86232 -3.2827 37.3263
RightShoulder  0.380236 -1.144 8.76905
RightArm  -3.59448 -5.55862 54.9073
RightForeArm  140.408 64.6357 156.133
RightHand  -1.18454 4.26895 -14.4386
LeftUpLeg  -25.3777 -2.43543 11.1496
LeftLeg  58.3585 -0.253019 0.0438318
LeftFoot  -8.99604 0.356617 -14.8368
LeftToes  3.7286e-011 -1.5702e-010 -9.70233e-012
246
root  -27.8192 35.9853 9.90453 -179.621 32.114 176.176
RightUpLeg  -30.7596 -3.84827 -18.7688
RightLeg  39.5774 -0.235085 -0.495149
RightFoot  -6.99383 -0.920095 22.5682
RightToes  -1.74624e-010 0 -3.6325e-017
Spine  15.9534 -2.94878 -0.74199
Spine1  21.0456 -5.1896 5.0772
HEad  -19.6686 25.3429 -18.4368
LeftShoulder1  1.81276 -4.05435 -17.3411
LeftArm  12.0949 5.32965 -66.434
LeftForeArm  71.5295 -79.2022 -86.7864
LeftHand  -2.94946 -3.27764 38.4025
RightShoulder  0.449348 -0.778156 9.17067
RightArm  -4.69381 -5.26709 54.7119
RightForeArm  138.947 65.8584 154.686
RightHand  -1.30039 4.53214 -15.4052
LeftUpLeg  -21.8314 -5.26152 14.6784
LeftLeg  57.4608 1.13147 2.44461
LeftFoot  -9.22576 0.281939 -11.95
LeftToes  3.7286e-011 -1.5702e-010 -9.70233e-012
247
root  -28.9367 35.9663 9.65408 -179.678 31.8646 176.116
RightUpLeg  -29.9837 -3.72295 -20.8603
RightLeg  36.8682 -0.0917703 -0.3251
RightFoot  -4.37128 -1.60015 25.3729
RightToes  -1.74624e-010 0 -3.6325e-017
Spine  15.5334 -3.1494 -2.54768
Spine1  21.3984 -6.0387 5.88467
HEad  -19.7346 25.584 -17.9954
LeftShoulder1  1.81535 -4.16029 -17.012
LeftArm  13.7064 5.9653 -66.5891
LeftForeArm  70.3455 -79.158 -86.5091
LeftHand  -2.92705 -3.21285 38.3928
RightShoulder  0.504932 -0.5699 9.99472
RightArm  -5.33113 -6.79829 54.4491
RightForeArm  139.747 66.2894 154.283
RightHand  -1.43036 4.88368 -16.3496
LeftUpLeg  -18.5858 -8.29197 17.0254
LeftLeg  52.9431 3.07282 4.78183
LeftFoot  -10.287 0.132244 -8.04038
LeftToes  3.7286e-011 -1.5702e-010 -9.70233e-012
248
root  -30.2649 36.282 9.40226 -179.238 31.3954 175.941
RightUpLeg  -27.9839 -3.73002 -23.1889
RightLeg  30.6465 -1.0604 -0.908029
RightFoot  0.555646 -2.86932 27.0701
RightToes  -1.74624e-010 0 -3.6325e-017
Spine  15.1653 -3.17976 -5.11808
Spine1  20.7958 -7.08371 7.65439
HEad  -18.5684 25.8641 -16.9028
LeftShoulder1  1.68293 -3.65901 -16.806
LeftArm  16.4767 6.57503 -65.5475
LeftForeArm  77.5432 -79.1535 -93.6814
LeftHand  -2.86571 -3.36123 37.0592
RightShoulder  0.500606 -0.760166 11.1705
RightArm  -5.36312 -10.1027 54.2381
RightForeArm  142.085 65.8078 155.077
RightHand  -1.50647 5.12786 -16.8081
LeftUpLeg  -15.867 -10.4783 18.2528
LeftLeg  45.9885 5.79642 6.82868
LeftFoot  -10.1008 0.139915 -6.49472
LeftToes  3.7286e-011 -1.5702e-010 -9.70233e-012
249
root  -31.7806 36.6255 9.10223 -177.962 32.3823 175.941
RightUpLeg  -27.0114 -3.55783 -25.2036
RightLeg  22.7935 -2.17117 -1.2141
RightFoot  8.3386 -4.89964 28.0439
RightToes  -1.74624e-010 0 -3.6325e-017
Spine  13.9615 -3.06974 -7.17748
Spine1  19.9767 -7.30767 8.37845
HEad  -17.9008 26.3071 -16.1907
LeftShoulder1  1.5461 -3.09819 -16.7175
LeftArm  18.6513 7.53564 -63.3776
LeftForeArm  92.4132 -78.8489 -106.165
LeftHand  -2.84404 -3.79159 35.1923
RightShoulder  0.458596 -1.08135 11.936
RightArm  -4.81687 -13.9711 54.4168
RightForeArm  144.089 64.8761 156.277
RightHand  -1.58765 5.40415 -17.2482
LeftUpLeg  -13.3505 -11.4762 19.0629
LeftLeg  38.295 6.07384 5.56546
LeftFoot  -9.96269 0.193468 -12.2522
LeftToes  3.7286e-011 -1.5702e-010 -9.70233e-012
250
root  -33.3418 36.7102 8.74335 -176.27 35.0585 176.407
RightUpLeg  -27.8484 -4.81121 -25.7956
RightLeg  16.5706 -3.24015 -1.30866
RightFoot  16.3983 -6.8018 27.6154
RightToes  -1.74624e-010 0 -3.6325e-017
Spine  11.9634 -2.96167 -8.70088
Spine1  19.3272 -6.69514 7.45559
HEad  -18.1181 27.1138 -15.712
LeftShoulder1  1.45141 -2.78696 -16.3386
LeftArm  19.1318 8.84615 -61.1102
LeftForeArm  107.701 -77.8904 -119.149
LeftHand  -2.85175 -4.20128 33.8651
RightShoulder  0.435572 -1.19244 11.8586
RightArm  -3.7648 -16.9649 55.0213
RightForeArm  145.003 63.9633 157.265
RightHand  -1.71085 5.70456 -18.0618
LeftUpLeg  -10.9321 -10.6885 19.5622
LeftLeg  32.2475 2.68345 2.186
LeftFoot  -13.3009 -0.341942 -22.517
LeftToes  3.7286e-011 -1.5702e-010 -9.70233e-012
251
root  -34.8896 36.5444 8.45461 -175.69 38.1592 177.053
RightUpLeg  -29.6615 -7.54345 -24.6602
RightLeg  16.4851 -4.2838 -1.7247
RightFoot  18.8535 -6.62961 24.6466
RightToes  -1.74624e-010 0 -3.6325e-017
Spine  11.0116 -2.78144 -10.3806
Spine1  18.559 -5.90735 5.83716
HEad  -18.3189 28.0326 -14.5952
LeftShoulder1  1.37058 -2.54791 -15.8766
LeftArm  18.5047 9.31279 -59.3444
LeftForeArm  114.917 -76.8522 -126.691
LeftHand  -2.8377 -4.26598 33.4995
RightShoulder  0.448773 -1.08884 11.5543
RightArm  -2.74925 -18.4671 55.8042
RightForeArm  145.768 63.2544 157.995
RightHand  -1.83785 5.89697 -19.0421
LeftUpLeg  -8.97612 -7.6341 19.0796
LeftLeg  29.9776 -1.62667 -0.699991
LeftFoot  -19.7907 -1.9228 -27.622
LeftToes  3.7286e-011 -1.5702e-010 -9.70233e-012
252
root  -36.4515 36.2267 8.36881 -177.197 40.5006 177.328
RightUpLeg  -31.6113 -8.04657 -23.8026
RightLeg  24.5888 -4.52304 -2.42932
RightFoot  13.3917 -4.74825 21.8641
RightToes  -1.74624e-010 0 -3.6325e-017
Spine  12.2272 -2.31912 -12.2792
Spine1  17.8526 -5.22984 4.00758
HEad  -18.3401 28.3465 -12.6983
LeftShoulder1  1.31451 -2.26947 -16.0093
LeftArm  17.73 6.91301 -57.9731
LeftForeArm  109.512 -77.3057 -122.881
LeftHand  -2.84587 -4.12917 34.0406
RightShoulder  0.477746 -0.974409 11.8899
RightArm  -2.51602 -18.7297 56.7753
RightForeArm  146.959 63.0566 158.289
RightHand  -1.97875 6.09074 -20.1153
LeftUpLeg  -8.19766 -4.47305 17.4808
LeftLeg  32.2342 -3.4378 -1.95875
LeftFoot  -26.6803 -3.21737 -24.8642
LeftToes  3.7286e-011 -1.5702e-010 -9.70233e-012
253
root  -37.9385 35.7528 8.43337 -179.738 41.9359 177.14
RightUpLeg  -33.2072 -6.92872 -23.3874
RightLeg  36.5237 -1.97848 -1.74366
RightFoot  5.80657 -3.28937 21.8995
RightToes  -1.74624e-010 0 -3.6325e-017
Spine  13.9361 -1.6574 -14.0032
Spine1  18.1342 -4.43301 1.67242
HEad  -18.7599 27.7663 -10.5803
LeftShoulder1  1.34585 -2.23897 -16.7258
LeftArm  16.9829 1.53608 -57.2042
LeftForeArm  87.9955 -78.9987 -101.845
LeftHand  -2.92395 -3.99632 35.373
RightShoulder  0.494994 -0.993377 12.8255
RightArm  -2.77207 -18.3043 58.2151
RightForeArm  147.625 63.7468 157.729
RightHand  -2.19926 6.48298 -21.5629
LeftUpLeg  -9.12992 -4.23438 15.2483
LeftLeg  37.884 -1.87462 -1.13196
LeftFoot  -31.8038 -3.62286 -20.854
LeftToes  3.7286e-011 -1.5702e-010 -9.70233e-012
254
root  -39.2394 35.3342 8.46247 178.664 43.1419 177.155
RightUpLeg  -34.0798 -7.10928 -21.8058
RightLeg  45.8643 0.50576 0.166652
RightFoot  1.39431 -2.58745 22.9737
RightToes  -1.74624e-010 0 -3.6325e-017
Spine  14.1816 -1.03994 -15.1243
Spine1  19.5945 -3.42555 -0.572002
HEad  -19.212 26.9362 -8.551
LeftShoulder1  1.46442 -2.60415 -17.3213
LeftArm  15.9944 -3.76966 -57.4446
LeftForeArm  58.7318 -78.7862 -72.2859
LeftHand  -2.99527 -3.81911 36.8279
RightShoulder  0.493443 -1.08515 13.5896
RightArm  -2.18806 -17.8375 60.0485
RightForeArm  146.764 65.056 156.379
RightHand  -2.45187 6.91363 -23.146
LeftUpLeg  -11.077 -5.80092 13.2284
LeftLeg  43.7589 0.197351 0.620221
LeftFoot  -34.3393 -3.887 -19.9332
LeftToes  3.7286e-011 -1.5702e-010 -9.70233e-012
